<svg width="40" height="40" viewBox="0 0 40 40" fill="none" xmlns="http://www.w3.org/2000/svg">
<path fill-rule="evenodd" clip-rule="evenodd" d="M15.7788 27.3894C16.781 27.4979 18.0917 27.5 20 27.5C21.9083 27.5 23.219 27.4979 24.2212 27.3894C25.1953 27.2838 25.6984 27.0923 26.0572 26.8316C26.3544 26.6157 26.6157 26.3544 26.8316 26.0572C27.0923 25.6984 27.2838 25.1953 27.3894 24.2212C27.4979 23.219 27.5 21.9083 27.5 20C27.5 18.0917 27.4979 16.781 27.3894 15.7788C27.2838 14.8047 27.0923 14.3016 26.8316 13.9428C26.6157 13.6456 26.3544 13.3843 26.0572 13.1684C25.6984 12.9077 25.1953 12.7162 24.2212 12.6106C23.219 12.5021 21.9083 12.5 20 12.5C18.0917 12.5 16.781 12.5021 15.7788 12.6106C14.8047 12.7162 14.3016 12.9077 13.9428 13.1684C13.6456 13.3843 13.3843 13.6456 13.1684 13.9428C12.9077 14.3016 12.7162 14.8047 12.6106 15.7788C12.5021 16.781 12.5 18.0917 12.5 20C12.5 21.9083 12.5021 23.219 12.6106 24.2212C12.7162 25.1953 12.9077 25.6984 13.1684 26.0572C13.3843 26.3544 13.6456 26.6157 13.9428 26.8316C14.3016 27.0923 14.8047 27.2838 15.7788 27.3894ZM11.9549 13.0611C11 14.3754 11 16.2503 11 20C11 23.7497 11 25.6246 11.9549 26.9389C12.2633 27.3634 12.6366 27.7367 13.0611 28.0451C14.3754 29 16.2503 29 20 29C23.7497 29 25.6246 29 26.9389 28.0451C27.3634 27.7367 27.7367 27.3634 28.0451 26.9389C29 25.6246 29 23.7497 29 20C29 16.2503 29 14.3754 28.0451 13.0611C27.7367 12.6366 27.3634 12.2633 26.9389 11.9549C25.6246 11 23.7497 11 20 11C16.2503 11 14.3754 11 13.0611 11.9549C12.6366 12.2633 12.2633 12.6366 11.9549 13.0611Z" fill="white" fillOpacity="0.7"/>
<path fill-rule="evenodd" clip-rule="evenodd" d="M20 22.5C21.3807 22.5 22.5 21.3807 22.5 20C22.5 18.6193 21.3807 17.5 20 17.5C18.6193 17.5 17.5 18.6193 17.5 20C17.5 21.3807 18.6193 22.5 20 22.5ZM20 24C22.2091 24 24 22.2091 24 20C24 17.7909 22.2091 16 20 16C17.7909 16 16 17.7909 16 20C16 22.2091 17.7909 24 20 24Z" fill="white" fillOpacity="0.7"/>
<path d="M25.75 15.5C25.75 16.1904 25.1904 16.75 24.5 16.75C23.8096 16.75 23.25 16.1904 23.25 15.5C23.25 14.8096 23.8096 14.25 24.5 14.25C25.1904 14.25 25.75 14.8096 25.75 15.5Z" fill="white" fillOpacity="0.7"/>
</svg>
