<svg width="132" height="228" viewBox="0 0 132 228" fill="none" xmlns="http://www.w3.org/2000/svg">
<path fill-rule="evenodd" clip-rule="evenodd" d="M66 203.017L57 184.017V178.017C28 166.017 12 143.35 12 120.017V58.0172H46V70.0172H25V88.0172L57 111.017V56.0172H46V44.0172H60V20.0171L66 15.0171L72 20.0171V44.0172H86V56.0172H75V111.017L107 88.0172V70.0172H86V58.0172H120V120.017C120 143.35 104 166.017 75 178.017V184.017L66 203.017ZM57 164.017V126.017L25 103.017V120.017C25 141.017 40 156.017 57 164.017ZM75 164.017V126.017L107 103.017V120.017C107 141.017 92 156.017 75 164.017Z" fill="white"/>
<path fill-rule="evenodd" clip-rule="evenodd" d="M46 183.971C46 183.971 62.0823 217.98 66 226.25L86 183.971C113.538 170.076 130 146.093 130 120.017V48.0172H96V34.0171H82V15.3334L66 2L50 15.3334V34.0171H36V48.0172H2V120.017C2 146.093 18.4617 170.076 46 183.971ZM126 120.017C126 144.639 110.216 167.726 83 180.995L66 217.033C61.3862 207.293 49 180.995 49 180.995C21.7844 167.726 6 144.639 6 120.017V52.0172H40V38.0171H54V17.2069L66 7.20684L78 17.2069V38.0171H92V52.0172H126V120.017Z" fill="white"/>
</svg>
